<svg width="988" height="197" viewBox="0 0 988 197" fill="none" xmlns="http://www.w3.org/2000/svg">
<path d="M0 91.6406L34.6084 57.0608L126.897 149.274L92.289 183.853L0 91.6406Z" fill="#A855F7"/>
<path d="M92.8641 184.426L58.2557 149.846L208.225 0L242.834 34.5798L92.8641 184.426Z" fill="#6366F1"/>
<path d="M92.8641 184.426L58.2557 149.846L92.8771 115.253L127.485 149.833L92.8641 184.426Z" fill="#FFC107"/>
<path d="M374.456 25.1489L409.324 130.722H410.698L445.5 25.1489H472.191L424.959 159.277H394.997L347.83 25.1489H374.456Z" fill="#343A40"/>
<path d="M521.827 161.241C512.015 161.241 503.51 159.08 496.314 154.758C489.118 150.435 483.536 144.388 479.567 136.616C475.642 128.845 473.679 119.763 473.679 109.372C473.679 98.9803 475.642 89.8769 479.567 82.0615C483.536 74.2461 489.118 68.1772 496.314 63.8547C503.51 59.5323 512.015 57.371 521.827 57.371C531.64 57.371 540.145 59.5323 547.341 63.8547C554.537 68.1772 560.097 74.2461 564.022 82.0615C567.991 89.8769 569.975 98.9803 569.975 109.372C569.975 119.763 567.991 128.845 564.022 136.616C560.097 144.388 554.537 150.435 547.341 154.758C540.145 159.08 531.64 161.241 521.827 161.241ZM521.958 142.249C527.279 142.249 531.727 140.786 535.304 137.861C538.88 134.892 541.54 130.919 543.285 125.941C545.073 120.964 545.967 115.419 545.967 109.306C545.967 103.15 545.073 97.5831 543.285 92.6057C541.54 87.5847 538.88 83.5897 535.304 80.6207C531.727 77.6517 527.279 76.1672 521.958 76.1672C516.507 76.1672 511.971 77.6517 508.351 80.6207C504.775 83.5897 502.093 87.5847 500.305 92.6057C498.56 97.5831 497.688 103.15 497.688 109.306C497.688 115.419 498.56 120.964 500.305 125.941C502.093 130.919 504.775 134.892 508.351 137.861C511.971 140.786 516.507 142.249 521.958 142.249Z" fill="#343A40"/>
<path d="M633.906 161.241C623.875 161.241 615.261 159.036 608.065 154.627C600.913 150.217 595.396 144.126 591.514 136.354C587.677 128.539 585.758 119.545 585.758 109.372C585.758 99.1549 587.72 90.1389 591.645 82.3235C595.57 74.4644 601.109 68.3518 608.262 63.9857C615.458 59.5759 623.962 57.371 633.775 57.371C641.93 57.371 649.148 58.8773 655.428 61.89C661.752 64.8589 666.789 69.0723 670.54 74.5299C674.291 79.9439 676.428 86.2748 676.951 93.5226H654.316C653.4 88.6762 651.22 84.6375 647.774 81.4066C644.373 78.132 639.815 76.4947 634.102 76.4947C629.261 76.4947 625.009 77.8045 621.345 80.4242C617.682 83.0002 614.825 86.7114 612.776 91.5579C610.769 96.4043 609.766 102.211 609.766 108.979C609.766 115.834 610.769 121.728 612.776 126.662C614.782 131.552 617.595 135.328 621.215 137.992C624.878 140.611 629.174 141.921 634.102 141.921C637.591 141.921 640.709 141.266 643.457 139.956C646.248 138.603 648.581 136.66 650.457 134.128C652.332 131.595 653.619 128.517 654.316 124.893H676.951C676.384 132.01 674.291 138.319 670.671 143.82C667.051 149.278 662.123 153.557 655.886 156.657C649.65 159.713 642.323 161.241 633.906 161.241Z" fill="#343A40"/>
<path d="M725.312 161.307C718.944 161.307 713.209 160.172 708.107 157.901C703.048 155.587 699.035 152.182 696.07 147.685C693.148 143.187 691.687 137.642 691.687 131.05C691.687 125.374 692.733 120.68 694.827 116.969C696.92 113.258 699.777 110.289 703.397 108.062C707.016 105.835 711.094 104.154 715.63 103.019C720.209 101.84 724.941 100.989 729.826 100.465C735.713 99.8535 740.489 99.3077 744.152 98.8275C747.816 98.3035 750.476 97.5176 752.133 96.4698C753.834 95.3782 754.685 93.6973 754.685 91.4269V91.0339C754.685 86.1002 753.224 82.2798 750.302 79.5728C747.38 76.8658 743.171 75.5123 737.676 75.5123C731.875 75.5123 727.274 76.7785 723.873 79.3108C720.514 81.8432 718.247 84.834 717.069 88.2832L694.958 85.1396C696.702 79.027 699.58 73.9187 703.593 69.8145C707.605 65.6667 712.512 62.5667 718.312 60.5146C724.112 58.4189 730.524 57.371 737.545 57.371C742.386 57.371 747.205 57.9386 752.003 59.0738C756.8 60.209 761.183 62.0864 765.152 64.7061C769.12 67.2821 772.304 70.7969 774.703 75.2503C777.145 79.7038 778.366 85.2706 778.366 91.9508V159.277H755.601V145.458H754.816C753.376 148.252 751.348 150.872 748.732 153.317C746.159 155.718 742.909 157.661 738.984 159.146C735.103 160.586 730.545 161.307 725.312 161.307ZM731.461 143.886C736.215 143.886 740.336 142.947 743.825 141.07C747.314 139.149 749.996 136.616 751.872 133.473C753.791 130.329 754.75 126.902 754.75 123.19V111.336C754.009 111.948 752.744 112.515 750.956 113.039C749.211 113.563 747.249 114.022 745.068 114.415C742.888 114.808 740.729 115.157 738.592 115.462C736.455 115.768 734.601 116.03 733.031 116.248C729.499 116.729 726.337 117.515 723.545 118.606C720.754 119.698 718.552 121.226 716.938 123.19C715.325 125.112 714.518 127.6 714.518 130.657C714.518 135.023 716.11 138.319 719.293 140.546C722.477 142.773 726.533 143.886 731.461 143.886Z" fill="#343A40"/>
<path d="M825.86 25.1489V159.277H802.179V25.1489H825.86Z" fill="#343A40"/>
<path d="M873.894 25.1489V159.277H850.212V25.1489H873.894Z" fill="#343A40"/>
<path d="M912.965 197C909.738 197 906.75 196.738 904.003 196.214C901.299 195.734 899.14 195.166 897.526 194.511L903.021 176.043C906.467 177.047 909.541 177.527 912.245 177.483C914.949 177.44 917.326 176.588 919.376 174.929C921.469 173.314 923.236 170.607 924.675 166.808L926.703 161.372L890.265 58.6809H915.385L938.544 134.652H939.59L962.814 58.6809H988L947.768 171.458C945.892 176.785 943.406 181.347 940.31 185.146C937.213 188.988 933.419 191.913 928.927 193.922C924.479 195.974 919.158 197 912.965 197Z" fill="#343A40"/>
</svg>


